Coordinates
version=1
nRows=21
nColumns=33
inDegrees=yes

Units are S.I. units (second, meters, Newtons, ...)
Angles are in degrees.

endheader
time	ground_thorax_rot_x	ground_thorax_rot_y	ground_thorax_rot_z	ground_thorax_tx	ground_thorax_ty	ground_thorax_tz	clav_prot_r	clav_elev_r	scapula_abduction_r	scapula_elevation_r	scapula_upward_rot_r	scapula_winging_r	shoulder_elv_r	plane_of_elev_r	axial_rot_r	elbow_flexion_r	pro_sup_r	wrist_flex_r	wrist_dev_r	clav_prot_l	clav_elev_l	scapula_abduction_l	scapula_elevation_l	scapula_upward_rot_l	scapula_winging_l	shoulder_elv_l	plane_of_elev_l	axial_rot_l	elbow_flexion_l	pro_sup_l	wrist_flex_l	wrist_dev_l
     12.45000000	    -39.41644888	      4.71190079	      1.80593738	     92.38026465	    768.75629076	    -43.46087125	     -2.01935824	    -45.00000000	     45.00000000	    -45.00000000	     45.00000000	  -2279.09730443	  -2631.15059835	    145.04518265	   -179.99999979	   1430.17857120	   -294.44582910	     20.21255343	     15.13030694	     18.84811729	     27.31148817	    -45.00000000	    -45.00000000	    -45.00000000	  -3173.45361256	   -261.78670372	     21.14108630	   -179.99999979	   1794.99306395	    489.10320918	     10.57516911	     -9.50608610
     12.46000000	    -39.41054888	      4.79679057	      1.97103051	     92.01605886	    768.48889303	    -43.37694972	     -1.80604307	    -45.00000000	     45.00000000	    -45.00000000	     45.00000000	  -2279.06115893	  -2630.91303994	    145.12990273	   -179.99999979	   1430.11841221	   -294.35993516	     20.09896361	     14.75643944	     18.90738656	     27.30504986	    -45.00000000	    -45.00000000	    -45.00000000	  -3173.49043153	   -261.93808159	     21.17074517	   -179.99999979	   1795.22500641	    488.90514589	     10.48750720	    -10.30742859
     12.47000000	    -39.44856951	      5.05900343	      1.79553631	     91.56128216	    768.25313771	    -43.29014959	     -1.96384759	    -45.00000000	     45.00000000	    -45.00000000	     45.00000000	  -2279.01106301	  -2630.87643662	    145.17245138	   -179.99999979	   1430.24845116	   -294.06384520	     20.18652961	     14.90325843	     18.85266652	     27.30437410	    -45.00000000	    -45.00000000	    -45.00000000	  -3173.46541727	   -261.78292147	     21.19850306	   -179.99999979	   1795.08659934	    489.04716829	     10.45644835	     -9.67637133
     12.48000000	    -39.43654223	      5.18624024	      1.70765242	     91.04018434	    768.05828616	    -43.20522683	     -1.83541621	    -45.00000000	     45.00000000	    -45.00000000	     45.00000000	  -2278.85618855	  -2630.90131609	    145.19479203	   -179.99999979	   1430.01473625	   -293.71372906	     20.09076960	     14.53391507	     18.87500197	     27.31594619	    -45.00000000	    -45.00000000	    -45.00000000	  -3173.42904352	   -261.85832947	     21.09340502	   -179.99999979	   1795.01036132	    488.96473961	     10.59626808	    -10.23498747
     12.49000000	    -39.42438108	      5.39790883	      1.68580983	     90.43648318	    767.89144475	    -43.12077599	     -1.96984396	    -45.00000000	     45.00000000	    -45.00000000	     45.00000000	  -2278.87027362	  -2630.66704516	    145.21144943	   -179.99999979	   1430.31080337	   -293.29065259	     20.28963974	     14.89538989	     18.84550847	     27.28819327	    -45.00000000	    -45.00000000	    -45.00000000	  -3173.37119784	   -261.76143491	     21.22428607	   -179.99999979	   1794.94846933	    489.19181340	     10.37781307	     -9.45558651
     12.50000000	    -39.41698266	      5.58289596	      1.63409356	     89.75225859	    767.75098612	    -43.03854814	     -1.80427921	    -45.00000000	     45.00000000	    -45.00000000	     45.00000000	  -2278.85558517	  -2630.58030347	    145.20485928	   -179.99999979	   1430.25254455	   -292.81659318	     20.25485411	     14.46280461	     18.83850516	     27.30533011	    -45.00000000	    -45.00000000	    -45.00000000	  -3173.41735059	   -261.76535341	     21.17218039	   -179.99999979	   1795.05712527	    489.22737868	     10.53621514	    -10.00066332
     12.51000000	    -39.42673669	      5.71950112	      1.54680045	     88.98906369	    767.63508648	    -42.95931613	     -1.93304430	    -45.00000000	     45.00000000	    -45.00000000	     45.00000000	  -2278.70089651	  -2630.48681145	    145.32768715	   -179.99999979	   1430.26040147	   -292.39256752	     20.12350000	     14.28387126	     18.80483670	     27.33090533	    -45.00000000	    -45.00000000	    -45.00000000	  -3173.30953184	   -261.81297017	     21.19151061	   -179.99999979	   1794.96989215	    489.41765589	     10.23118500	    -10.07423707
     12.52000000	    -39.40709847	      5.92469778	      1.47494421	     88.14254178	    767.54197118	    -42.88284925	     -1.75712170	    -45.00000000	     45.00000000	    -45.00000000	     45.00000000	  -2278.76228513	  -2630.36873566	    145.20717692	   -179.99999979	   1430.18699259	   -292.00600588	     20.40891186	     14.34759840	     18.79624352	     27.31474014	    -45.00000000	    -45.00000000	    -45.00000000	  -3173.31242943	   -261.70033096	     21.14861269	   -179.99999979	   1794.95638090	    489.65258134	     10.61272344	    -10.12271345
     12.53000000	    -39.43588092	      5.97461236	      1.46326368	     87.20586025	    767.47101351	    -42.80860651	     -1.92620543	    -45.00000000	     45.00000000	    -45.00000000	     45.00000000	  -2278.58689848	  -2630.23122733	    145.44302313	   -179.99999979	   1430.26099396	   -291.59771164	     19.91737785	     13.98463683	     18.75034693	     27.34893051	    -45.00000000	    -45.00000000	    -45.00000000	  -3173.13586815	   -261.90226132	     21.22308569	   -179.99999979	   1794.92671725	    489.94189869	      9.91339416	    -10.23760923
     12.54000000	    -39.40856872	      6.15693205	      1.44332118	     86.18034488	    767.42286431	    -42.73704865	     -1.72168427	    -45.00000000	     45.00000000	    -45.00000000	     45.00000000	  -2278.71540616	  -2630.06186755	    145.32785871	   -179.99999979	   1430.28471566	   -291.23087117	     20.21119850	     14.04382121	     18.74496000	     27.32531485	    -45.00000000	    -45.00000000	    -45.00000000	  -3173.20258641	   -261.82391799	     21.15471609	   -179.99999979	   1795.00960462	    490.35227221	     10.38314330	    -10.28939772
     12.55000000	    -39.41642176	      6.35741559	      1.25671213	     85.06645681	    767.39762874	    -42.66874955	     -1.81192681	    -45.00000000	     45.00000000	    -45.00000000	     45.00000000	  -2278.70451695	  -2630.03831549	    145.27465253	   -179.99999979	   1430.19913319	   -290.95183446	     20.36901220	     14.02136901	     18.66038133	     27.39606522	    -45.00000000	    -45.00000000	    -45.00000000	  -3173.01003175	   -261.77247956	     21.21335739	   -179.99999979	   1794.85181440	    490.76423742	     10.09651853	    -10.28729704
     12.56000000	    -39.40727961	      6.35347620	      1.37832679	     83.86233051	    767.39440506	    -42.60478107	     -1.69530338	    -45.00000000	     45.00000000	    -45.00000000	     45.00000000	  -2278.68996383	  -2629.78127978	    145.32115738	   -179.99999979	   1430.20920900	   -290.69686284	     20.14290035	     13.95885168	     18.69232796	     27.34133084	    -45.00000000	    -45.00000000	    -45.00000000	  -3173.01641759	   -261.88690691	     21.07947357	   -179.99999979	   1794.98346693	    491.11922427	     10.48789122	    -10.49659544
     12.57000000	    -39.44149104	      6.58793995	      1.17851624	     82.56654443	    767.41208972	    -42.54650524	     -1.66912506	    -45.00000000	     45.00000000	    -45.00000000	     45.00000000	  -2278.81334422	  -2629.78256385	    145.21997647	   -179.99999979	   1430.16015861	   -290.52201134	     20.43983432	     13.93111351	     18.55476841	     27.43634946	    -45.00000000	    -45.00000000	    -45.00000000	  -3172.82832148	   -261.82444163	     21.18661013	   -179.99999979	   1794.89994997	    491.65389985	      9.93376191	    -10.33410773
     12.58000000	    -39.45664718	      6.53896910	      1.29995067	     81.18413404	    767.44778770	    -42.49566622	     -1.66783894	    -45.00000000	     45.00000000	    -45.00000000	     45.00000000	  -2278.78630818	  -2629.54955043	    145.30467165	   -179.99999979	   1430.15610288	   -290.35366441	     20.11429170	     13.93713806	     18.61833036	     27.37772441	    -45.00000000	    -45.00000000	    -45.00000000	  -3172.79581220	   -261.99528827	     21.00046143	   -179.99999979	   1795.06526881	    492.04702965	     10.57573702	    -10.70708608
     12.59000000	    -39.50015899	      6.78386765	      1.06745363	     79.71213433	    767.49889470	    -42.45305496	     -1.51440566	    -45.00000000	     45.00000000	    -45.00000000	     45.00000000	  -2278.96727645	  -2629.58479425	    145.11198095	   -179.99999979	   1430.01477348	   -290.30455257	     20.59878359	     13.93939524	     18.42182357	     27.48235558	    -45.00000000	    -45.00000000	    -45.00000000	  -3172.54661224	   -261.90292725	     21.15387207	   -179.99999979	   1794.84220768	    492.64279547	      9.69102211	    -10.35567188
     12.60000000	    -39.46349644	      6.75970954	      1.27222754	     78.15002676	    767.56190682	    -42.41895465	     -1.46738745	    -45.00000000	     45.00000000	    -45.00000000	     45.00000000	  -2279.01953876	  -2629.26376817	    145.13762265	   -179.99999979	   1430.06801364	   -290.24792126	     20.29671258	     13.92243529	     18.50215263	     27.43184862	    -45.00000000	    -45.00000000	    -45.00000000	  -3172.61807783	   -262.08521338	     20.98031640	   -179.99999979	   1795.08974343	    493.18578586	     10.29231498	    -10.68578846
     12.61000000	    -39.51934725	      6.91592108	      1.08577189	     76.49999348	    767.63489145	    -42.39287839	     -1.51011517	    -45.00000000	     45.00000000	    -45.00000000	     45.00000000	  -2279.08105742	  -2629.28108359	    145.09284606	   -179.99999979	   1430.00332823	   -290.23153563	     20.30594115	     13.98792669	     18.33251308	     27.51693218	    -45.00000000	    -45.00000000	    -45.00000000	  -3172.30143390	   -262.08691131	     21.09519416	   -179.99999979	   1795.02140987	    493.70131341	     10.05382003	    -10.73305521
     12.62000000	    -39.51304381	      6.85072209	      1.19363812	     74.75783926	    767.71649058	    -42.37367549	     -1.41171036	    -45.00000000	     45.00000000	    -45.00000000	     45.00000000	  -2279.13053087	  -2629.03980851	    145.05472163	   -179.99999979	   1429.87054690	   -290.26009268	     20.33910376	     14.02344640	     18.44618101	     27.47945677	    -45.00000000	    -45.00000000	    -45.00000000	  -3172.31411110	   -262.29710399	     20.76668969	   -179.99999979	   1795.05539415	    494.16401359	     10.43920374	    -10.88258233
     12.63000000	    -39.57592294	      7.14012087	      0.93660063	     72.93689535	    767.80726463	    -42.36015547	     -1.33613484	    -45.00000000	     45.00000000	    -45.00000000	     45.00000000	  -2279.25440521	  -2629.10543986	    144.97923704	   -179.99999979	   1429.84160455	   -290.28394210	     20.26352394	     14.07732027	     18.18700859	     27.55193022	    -45.00000000	    -45.00000000	    -45.00000000	  -3171.87036187	   -262.26147444	     21.16052574	   -179.99999979	   1794.99168750	    494.67347027	      9.87361425	    -10.82665640
     12.64000000	    -39.58127488	      7.00681200	      1.22093980	     71.02990252	    767.90889008	    -42.35084616	     -1.26538946	    -45.00000000	     45.00000000	    -45.00000000	     45.00000000	  -2279.36294980	  -2628.70634715	    145.01589021	   -179.99999979	   1429.80088757	   -290.36380495	     20.23410201	     14.01960140	     18.36218269	     27.53527039	    -45.00000000	    -45.00000000	    -45.00000000	  -3172.16362741	   -262.43057777	     20.67030615	   -179.99999979	   1795.30224454	    495.18170797	     10.43822928	    -10.96416156
     12.65000000	    -39.57551559	      7.23165886	      1.03325770	     69.04643446	    768.02468671	    -42.34504515	     -1.17601191	    -45.00000000	     45.00000000	    -45.00000000	     45.00000000	  -2279.46703941	  -2628.65582680	    144.88997163	   -179.99999979	   1429.75277310	   -290.42595533	     20.24767640	     14.08385821	     18.11110665	     27.61245347	    -45.00000000	    -45.00000000	    -45.00000000	  -3171.85532671	   -262.49074002	     20.88325419	   -179.99999979	   1795.20847635	    495.75532949	     10.14518309	    -10.96028099
